<svg version="1.0"
 xmlns="http://www.w3.org/2000/svg"
 viewBox="0 0 16 16"
 preserveAspectRatio="xMidYMid meet">
  <path d="M16,2.06a2.06,2.06,0,1,0-3.34,1.61L11,9.19h0L9.32,6.07a2.06,2.06,0,1,0-3,.19L4.24,11.72l-2-5.6a.77.77,0,0,0-1.45.52l2.06,5.77a2.06,2.06,0,1,0,2.77,0L7.77,6.81H8L9.65,9.93a2.06,2.06,0,1,0,2.86-.3l1.63-5.53A2.06,2.06,0,0,0,16,2.06Zm-3.09,0a1,1,0,1,1,1,1A1,1,0,0,1,12.91,2.06Zm-.64,9.18a1,1,0,1,1-1-1A1,1,0,0,1,12.27,11.24ZM6.7,4.76a1,1,0,1,1,1,1A1,1,0,0,1,6.7,4.76ZM5.25,13.94a1,1,0,1,1-1-1A1,1,0,0,1,5.25,13.94Z"/>
</svg>
