<svg xmlns="http://www.w3.org/2000/svg" viewBox="0 0 64 64" width="64" height="64">
  <rect fill="#456bd9" width="64" height="64"/>
  <path fill="#fff" d="M47,20.31a4,4,0,1,0-6.56,3.17l-3.2,10.87h-.05L33.86,28.2a4,4,0,1,0-5.88.38l-4.1,10.73-3.93-11a1.52,1.52,0,1,0-2.86,1l4.05,11.35a4,4,0,1,0,5.44.06l4.23-11.06.37,0,3.33,6.15a4,4,0,1,0,5.63-.59l3.2-10.87A4.05,4.05,0,0,0,47,20.31Zm-6.07,0a2,2,0,1,1,2,2A2,2,0,0,1,40.93,20.31ZM39.66,38.37a2,2,0,1,1-2-2A2,2,0,0,1,39.66,38.37Zm-11-12.75a2,2,0,1,1,2,2A2,2,0,0,1,28.71,25.63ZM25.85,43.69a2,2,0,1,1-2-2A2,2,0,0,1,25.85,43.69Z"/>
</svg>
