<svg xmlns="http://www.w3.org/2000/svg" width="64" height="64"><path fill="#456bd9" d="M0 0h64v64H0z"/><path fill="#fff" d="M47 20.31a4 4 0 10-6.56 3.17l-3.2 10.87h-.05l-3.33-6.15a4 4 0 10-5.88.38l-4.1 10.73-3.93-11a1.52 1.52 0 10-2.86 1l4.05 11.35a4 4 0 105.44.06l4.23-11.06h.37l3.33 6.15a4 4 0 105.63-.59l3.2-10.87A4.05 4.05 0 0047 20.31zm-6.07 0a2 2 0 112 2 2 2 0 01-2-2zm-1.27 18.06a2 2 0 11-2-2 2 2 0 012 2zm-11-12.75a2 2 0 112 2 2 2 0 01-1.95-1.99zm-2.81 18.07a2 2 0 11-2-2 2 2 0 012 2z"/></svg>